<?xml version="1.0" encoding="utf-8"?>
<!-- Generator: Adobe Illustrator 25.4.1, SVG Export Plug-In . SVG Version: 6.00 Build 0)  -->
<svg version="1.1" id="Layer_1" xmlns="http://www.w3.org/2000/svg" xmlns:xlink="http://www.w3.org/1999/xlink" x="0px" y="0px"
	 viewBox="0 0 256 256" style="enable-background:new 0 0 256 256;" xml:space="preserve">
<style type="text/css">
	.st0{fill:none;stroke:#000000;stroke-width:9;stroke-miterlimit:10;}
	.st1{stroke:#000000;stroke-width:9;stroke-miterlimit:10;}
	.st2{fill:#FF5F5F;stroke:#FF5F5F;stroke-width:6;stroke-miterlimit:10;}
	.st3{fill:none;stroke:#000000;stroke-width:11;stroke-miterlimit:10;}
</style>
<g id="Layer_1_00000076587210316539773010000015849977127107134356_">
</g>
<g id="Layer_2_00000088132179840079763610000003624166895393171111_">
	<g>
		<line class="st0" x1="96.7" y1="227.6" x2="166.1" y2="227.6"/>
		<path class="st1" d="M157.6,141.5"/>
		<ellipse class="st2" cx="170" cy="143.6" rx="0.7" ry="0.9"/>
		<ellipse class="st2" cx="170" cy="150.5" rx="0.7" ry="0.9"/>
		<ellipse class="st2" cx="170" cy="157.5" rx="0.7" ry="0.9"/>
		<path class="st3" d="M130.4,136.4H54.8c0,0-9.7-1.2-9.7-12.9s35.7-67.8,35.7-67.8s5.5-9.3,14.5-9.3s33.4,0,33.4,0 M125.6,136.4
			h75.6c0,0,9.7-1.2,9.7-12.9s-35.7-67.8-35.7-67.8s-5.5-9.3-14.5-9.3s-33.4,0-33.4,0"/>
		<line class="st3" x1="130.4" y1="136.4" x2="130.4" y2="230.5"/>
	</g>
</g>
</svg>
