<?xml version="1.0" encoding="utf-8"?>
<!-- Generator: Adobe Illustrator 25.4.1, SVG Export Plug-In . SVG Version: 6.00 Build 0)  -->
<svg version="1.1" id="Layer_1" xmlns="http://www.w3.org/2000/svg" xmlns:xlink="http://www.w3.org/1999/xlink" x="0px" y="0px"
	 viewBox="0 0 32 32" style="enable-background:new 0 0 32 32;" xml:space="preserve">
<style type="text/css">
	.st0{fill:#FF5F5F;}
</style>
<path class="st0" d="M16,12.9c-1.7,0-3.1,1.4-3.1,3.1c0,1.7,1.4,3.1,3.1,3.1s3.1-1.4,3.1-3.1C19.1,14.3,17.7,12.9,16,12.9z"/>
<path d="M22.8,9.2c-0.6-0.6-1.5-0.6-2.1,0c-0.6,0.6-0.6,1.5,0,2.1c1.2,1.3,1.9,2.9,1.9,4.7s-0.7,3.4-1.9,4.7c-0.6,0.6-0.6,1.5,0,2.1
	c0.3,0.3,0.7,0.4,1.1,0.4c0.4,0,0.8-0.1,1.1-0.4c1.8-1.8,2.8-4.2,2.8-6.8S24.6,11,22.8,9.2z"/>
<path d="M27,5c-0.6-0.6-1.5-0.6-2.1,0c-0.6,0.6-0.6,1.5,0,2.1c2.4,2.4,3.7,5.5,3.7,8.8s-1.3,6.5-3.7,8.8c-0.6,0.6-0.6,1.5,0,2.1
	c0.3,0.3,0.7,0.4,1.1,0.4s0.8-0.1,1.1-0.4c2.9-2.9,4.5-6.8,4.5-11S29.9,8,27,5z M11.3,9.2c-0.6-0.6-1.5-0.6-2.1,0
	C7.4,11,6.4,13.5,6.4,16s1,5,2.8,6.8c0.3,0.3,0.7,0.4,1.1,0.4c0.4,0,0.8-0.1,1.1-0.4c0.6-0.6,0.6-1.5,0-2.1
	c-1.2-1.3-1.9-2.9-1.9-4.7s0.7-3.4,1.9-4.7C11.9,10.7,11.9,9.8,11.3,9.2z"/>
<path d="M3.5,16c0-3.3,1.3-6.5,3.7-8.8c0.6-0.6,0.6-1.5,0-2.1C6.6,4.4,5.6,4.4,5,5C2.1,8,0.5,11.9,0.5,16S2.1,24,5,27
	c0.3,0.3,0.7,0.4,1.1,0.4s0.8-0.1,1.1-0.4c0.6-0.6,0.6-1.5,0-2.1C4.8,22.5,3.5,19.3,3.5,16z"/>
</svg>
